<svg width="36" height="36" viewBox="0 0 36 36" fill="none" xmlns="http://www.w3.org/2000/svg">
<path d="M28.2857 11.25V9C28.2857 4.03734 23.6715 0 18 0C12.3284 0 7.71429 4.03734 7.71429 9V11.25H0V30.375C0 33.4816 2.87815 36 6.42857 36H29.5714C33.1218 36 36 33.4816 36 30.375V11.25H28.2857ZM12.8571 9C12.8571 6.51867 15.1642 4.5 18 4.5C20.8358 4.5 23.1429 6.51867 23.1429 9V11.25H12.8571V9ZM25.7143 17.4375C24.6492 17.4375 23.7857 16.682 23.7857 15.75C23.7857 14.818 24.6492 14.0625 25.7143 14.0625C26.7794 14.0625 27.6429 14.818 27.6429 15.75C27.6429 16.682 26.7794 17.4375 25.7143 17.4375ZM10.2857 17.4375C9.22058 17.4375 8.35714 16.682 8.35714 15.75C8.35714 14.818 9.22058 14.0625 10.2857 14.0625C11.3508 14.0625 12.2143 14.818 12.2143 15.75C12.2143 16.682 11.3508 17.4375 10.2857 17.4375Z" fill="white"/>
</svg>
