<?xml version="1.0" encoding="iso-8859-1"?>
<!-- Generator: Adobe Illustrator 19.0.0, SVG Export Plug-In . SVG Version: 6.00 Build 0)  -->
<svg version="1.1" id="Capa_1" xmlns="http://www.w3.org/2000/svg" xmlns:xlink="http://www.w3.org/1999/xlink" x="0px" y="0px"
	 viewBox="0 0 490 490" style="enable-background:new 0 0 490 490;" xml:space="preserve">
<g>
	<g>
		<path d="M59.5,417.9c0,38.9,35.7,72.1,74.6,72.1H355c38.9,0,75.5-33.1,75.5-72.1V114.5h-73.3c0-0.7,0.1-1.5,0.1-2.2
			C357.3,50.4,306.9,0,245,0S132.7,50.4,132.7,112.3c0,0.7,0.1,1.5,0.1,2.2H59.5V417.9z M337.8,154.6c10,0,18.1,8.1,18.1,18.1
			s-8.1,18.1-18.1,18.1s-18.1-8.1-18.1-18.1C319.7,162.7,327.8,154.6,337.8,154.6z M245,41.4c39.1,0,71,31.8,71,71
			c0,0.7-0.1,1.5-0.1,2.2H174.1c0-0.7-0.1-1.5-0.1-2.2C174,73.2,205.9,41.4,245,41.4z M152.2,154.6c10,0,18.1,8.1,18.1,18.1
			s-8.1,18.1-18.1,18.1s-18.1-8.1-18.1-18.1C134.1,162.7,142.2,154.6,152.2,154.6z"/>
	</g>
</g>
<g>
</g>
<g>
</g>
<g>
</g>
<g>
</g>
<g>
</g>
<g>
</g>
<g>
</g>
<g>
</g>
<g>
</g>
<g>
</g>
<g>
</g>
<g>
</g>
<g>
</g>
<g>
</g>
<g>
</g>
</svg>
