<svg width="342" height="119" viewBox="0 0 342 119" fill="none" xmlns="http://www.w3.org/2000/svg">
<path d="M171.239 66.3028C171.239 71.4595 169.727 75.4262 166.685 78.2028C163.643 80.9795 159.289 82.3678 153.602 82.3678C149.625 82.3678 146.205 81.634 143.282 80.1862C140.379 78.7383 138.53 76.279 138.53 76.279C137.675 75.089 137.735 73.304 138.729 72.2528L141.91 68.6828C142.904 67.6317 144.296 67.7507 145.012 68.9407C145.012 68.9407 145.668 70.0712 147.597 71.2612C149.446 72.4512 151.494 73.0462 153.681 73.0462C155.928 73.0462 157.579 72.5107 158.712 71.519C159.845 70.4678 160.422 69.0002 160.422 67.0168C160.422 65.2913 159.627 63.7047 158.115 62.3163C156.604 60.928 153.88 59.143 149.983 57.0208C145.748 54.6408 142.705 52.2608 140.996 49.8213C139.286 47.3818 138.351 44.5258 138.351 41.2335C138.351 36.6123 139.862 32.9035 142.904 30.1863C145.947 27.4692 150.043 26.0808 155.272 26.0808C158.453 26.0808 161.217 26.6758 163.603 27.8658C165.989 29.0558 167.898 31.178 167.898 31.178C168.833 32.2292 168.833 34.0142 167.839 35.0852L164.935 38.2585C163.941 39.3097 162.49 39.2502 161.635 38.0602C161.635 38.0602 161.376 37.6635 159.845 36.8107C158.334 35.8785 156.743 35.4223 155.153 35.4223C153.304 35.4223 151.772 35.8785 150.719 36.8702C149.585 37.8618 149.068 39.0518 149.068 40.4402C149.068 43.2763 154.616 47.3223 154.616 47.3223C155.809 48.1752 157.121 49.0478 157.598 49.3057C158.056 49.5635 159.905 50.694 161.177 51.4278C161.177 51.4278 166.665 54.9978 168.515 57.4373C170.244 59.8967 171.239 62.8717 171.239 66.3028Z" fill="white"/>
<path d="M187.702 78.5995C187.702 80.0474 186.509 81.2374 185.058 81.2374H179.769C178.317 81.2374 177.124 80.0474 177.124 78.5995V29.8095C177.124 28.3617 178.317 27.1717 179.769 27.1717H185.058C186.509 27.1717 187.702 28.3617 187.702 29.8095V78.5995Z" fill="white"/>
<path d="M242.184 78.5995C242.184 80.0474 240.991 81.2374 239.539 81.2374H234.449C232.997 81.2374 231.148 80.2457 230.353 79.0557L208.143 46.9257C207.347 45.7357 206.632 45.934 206.632 47.3819V78.5797C206.632 80.0275 205.439 81.2175 203.987 81.2175H198.897C197.445 81.2175 196.252 80.0275 196.252 78.5797V29.7897C196.252 28.3419 197.445 27.1519 198.897 27.1519H203.987C205.439 27.1519 207.288 28.1435 208.083 29.3335L230.234 61.3247C231.029 62.5147 231.745 62.3164 231.745 60.8685V29.8095C231.745 28.3617 232.938 27.1717 234.389 27.1717H239.48C240.931 27.1717 242.124 28.3617 242.124 29.8095V78.5995H242.184Z" fill="white"/>
<path d="M289.785 57.5762C289.785 59.024 289.646 61.3445 289.447 62.7923C289.447 62.7923 288.135 72.8478 284.695 76.6162C281.315 80.444 276.424 82.3083 270.081 82.3083C263.797 82.3083 258.966 80.325 255.526 76.4178C252.086 72.5107 250.694 62.7328 250.694 62.7328C250.495 61.285 250.356 58.9645 250.356 57.5167V29.75C250.356 28.3022 251.549 27.1122 253 27.1122H258.628C260.079 27.1122 261.272 28.3022 261.272 29.75V59.3612C261.272 60.809 261.411 63.1295 261.61 64.5773C261.61 64.5773 262.067 68.0878 263.519 69.8728C265.03 71.6578 267.217 72.59 270.061 72.59C273.043 72.59 275.29 71.7372 276.742 69.9522C278.193 68.2267 278.591 64.5972 278.591 64.5972C278.79 63.1493 278.929 60.8288 278.929 59.381V29.8293C278.929 28.3815 280.122 27.1915 281.573 27.1915H287.2C288.652 27.1915 289.845 28.3815 289.845 29.8293V57.596H289.785V57.5762Z" fill="white"/>
<path d="M328.877 66.3028C328.877 71.4595 327.366 75.4262 324.323 78.2028C321.281 80.9795 316.907 82.3678 311.24 82.3678C307.263 82.3678 303.823 81.634 300.92 80.1862C298.017 78.7383 296.168 76.279 296.168 76.279C295.313 75.089 295.373 73.304 296.367 72.2528L299.548 68.6828C300.542 67.6317 301.934 67.7507 302.65 68.9407C302.65 68.9407 303.306 70.0712 305.235 71.2612C307.084 72.4512 309.132 73.0462 311.319 73.0462C313.566 73.0462 315.217 72.5107 316.35 71.519C317.483 70.4678 318.08 69.0002 318.08 67.0168C318.08 65.2913 317.285 63.7047 315.773 62.3163C314.262 60.928 311.538 59.143 307.641 57.0208C303.406 54.6408 300.363 52.2608 298.653 49.8213C296.943 47.3818 296.009 44.5258 296.009 41.2335C296.009 36.6123 297.52 32.9035 300.562 30.1863C303.605 27.4692 307.701 26.0808 312.93 26.0808C316.111 26.0808 318.875 26.6758 321.261 27.8658C323.647 29.0558 325.556 31.178 325.556 31.178C326.491 32.2292 326.491 34.0142 325.497 35.0852L322.594 38.2585C321.599 39.3097 320.148 39.2502 319.293 38.0602C319.293 38.0602 319.034 37.6635 317.503 36.8107C315.992 35.8785 314.401 35.4223 312.811 35.4223C310.962 35.4223 309.43 35.8785 308.377 36.8702C307.263 37.8618 306.726 39.0518 306.726 40.4402C306.726 43.2763 312.274 47.3223 312.274 47.3223C313.467 48.1752 314.779 49.0478 315.256 49.3057C315.714 49.5635 317.563 50.694 318.836 51.4278C318.836 51.4278 324.323 54.9978 326.173 57.4373C327.942 59.8967 328.877 62.8717 328.877 66.3028Z" fill="white"/>
<path d="M58.9552 117.215C91.306 117.215 117.533 90.9953 117.533 58.6472C117.533 26.299 91.306 0.0793457 58.9552 0.0793457C26.6044 0.0793457 0.35791 26.299 0.35791 58.6472C0.35791 90.9953 26.5845 117.215 58.9552 117.215Z" fill="#B84040"/>
<path d="M94.4675 43.4945V73.78C94.4675 74.8312 93.6125 75.7038 92.5587 75.7038C91.5048 75.7038 90.6498 74.851 90.6498 73.78V43.4945C90.6498 39.9245 87.7468 37.009 84.1678 37.009C80.5887 37.009 77.6857 39.9245 77.6857 43.4945V73.78C77.6857 79.4722 73.0528 84.0934 67.366 84.0934C61.6793 84.0934 57.0464 79.4722 57.0464 73.78V43.4945C57.0464 39.9245 54.1433 37.009 50.5643 37.009C46.9852 37.009 44.0822 39.9245 44.0822 43.4945V73.78C44.0822 79.4722 39.4493 84.0934 33.7625 84.0934C28.0758 84.0934 23.4429 79.4722 23.4429 73.78V43.4945C23.4429 42.4434 24.2979 41.5707 25.3517 41.5707C26.4055 41.5707 27.2605 42.4235 27.2605 43.4945V73.78C27.2605 77.35 30.1636 80.2655 33.7426 80.2655C37.3217 80.2655 40.2247 77.35 40.2247 73.78V43.4945C40.2247 37.8024 44.8576 33.1812 50.5444 33.1812C56.2311 33.1812 60.864 37.8024 60.864 43.4945V73.78C60.864 77.35 63.7671 80.2655 67.3461 80.2655C70.9252 80.2655 73.8282 77.35 73.8282 73.78V43.4945C73.8282 37.8024 78.4611 33.1812 84.1479 33.1812C89.8346 33.1812 94.4675 37.8222 94.4675 43.4945Z" fill="white"/>
<path d="M146.662 102.737C146.662 103.867 146.245 104.74 145.429 105.355C144.614 105.989 143.501 106.287 142.109 106.287C140.598 106.287 139.425 106.088 138.609 105.712V104.284C139.126 104.502 139.703 104.68 140.319 104.799C140.936 104.918 141.552 104.998 142.149 104.998C143.143 104.998 143.879 104.819 144.376 104.442C144.873 104.066 145.131 103.55 145.131 102.875C145.131 102.439 145.032 102.082 144.853 101.805C144.674 101.527 144.376 101.249 143.958 101.011C143.541 100.773 142.904 100.496 142.069 100.198C140.876 99.7815 140.021 99.2658 139.524 98.6907C139.027 98.1155 138.768 97.342 138.768 96.4098C138.768 95.4182 139.146 94.6447 139.882 94.0695C140.618 93.4943 141.592 93.1968 142.825 93.1968C144.097 93.1968 145.27 93.4348 146.324 93.891L145.867 95.1802C144.813 94.7438 143.779 94.5257 142.785 94.5257C141.99 94.5257 141.393 94.7042 140.936 95.0215C140.498 95.3587 140.28 95.8347 140.28 96.4297C140.28 96.866 140.359 97.2428 140.518 97.5205C140.677 97.7982 140.956 98.056 141.333 98.294C141.731 98.532 142.328 98.7898 143.123 99.0675C144.455 99.5435 145.39 100.059 145.887 100.595C146.404 101.15 146.662 101.864 146.662 102.737ZM162.072 106.128H160.322L155.67 99.9402L154.337 101.13V106.128H152.846V93.3952H154.337V99.722L160.124 93.3952H161.873L156.743 98.9287L162.072 106.128ZM175.454 106.128L173.863 102.082H168.733L167.162 106.128H165.651L170.702 93.3357H171.954L176.985 106.128H175.454ZM173.386 100.734L171.895 96.7867C171.696 96.2908 171.497 95.676 171.298 94.9422C171.179 95.4975 170.98 96.1123 170.741 96.7867L169.23 100.734H173.386ZM186.251 106.128H184.759V94.7042H180.723V93.3952H190.307V94.7042H186.271V106.128H186.251ZM202.933 106.128H195.815V93.3952H202.933V94.7042H197.306V98.8097H202.595V100.119H197.306V104.799H202.933V106.128ZM209.356 93.3753H212.974C214.665 93.3753 215.897 93.6332 216.653 94.129C217.409 94.6248 217.786 95.438 217.786 96.5288C217.786 97.2825 217.568 97.9172 217.15 98.3932C216.733 98.889 216.116 99.2063 215.301 99.3452V99.4245C217.23 99.7617 218.204 100.773 218.204 102.479C218.204 103.609 217.826 104.502 217.051 105.136C216.275 105.771 215.201 106.089 213.81 106.089H209.356V93.3753V93.3753ZM210.827 98.8295H213.273C214.327 98.8295 215.082 98.6708 215.539 98.3337C215.997 97.9965 216.235 97.4412 216.235 96.6677C216.235 95.9537 215.977 95.438 215.46 95.1207C214.943 94.8033 214.128 94.6447 213.014 94.6447H210.827V98.8295ZM210.827 100.099V104.859H213.491C214.525 104.859 215.301 104.66 215.818 104.264C216.335 103.867 216.593 103.233 216.593 102.4C216.593 101.606 216.335 101.031 215.798 100.654C215.261 100.277 214.466 100.099 213.372 100.099H210.827ZM235.622 99.7418C235.622 101.785 235.105 103.391 234.071 104.561C233.037 105.732 231.606 106.307 229.756 106.307C227.867 106.307 226.416 105.731 225.402 104.581C224.388 103.431 223.871 101.804 223.871 99.722C223.871 97.6395 224.388 96.033 225.402 94.9025C226.416 93.7522 227.887 93.177 229.776 93.177C231.606 93.177 233.037 93.7522 234.071 94.9223C235.105 96.0925 235.622 97.6792 235.622 99.7418ZM225.442 99.7418C225.442 101.467 225.799 102.776 226.535 103.669C227.271 104.561 228.345 104.998 229.756 104.998C231.168 104.998 232.242 104.561 232.958 103.669C233.673 102.776 234.031 101.467 234.031 99.7418C234.031 98.0362 233.673 96.7272 232.958 95.8545C232.242 94.962 231.168 94.5257 229.776 94.5257C228.364 94.5257 227.291 94.9818 226.535 95.8743C225.799 96.7272 225.442 98.0362 225.442 99.7418ZM250.078 106.128L248.487 102.082H243.357L241.786 106.128H240.275L245.325 93.3357H246.578L251.609 106.128H250.078ZM248.029 100.734L246.558 96.7867C246.359 96.2908 246.16 95.676 245.962 94.9422C245.822 95.4975 245.643 96.1123 245.405 96.7867L243.894 100.734H248.029ZM258.449 100.833V106.128H256.957V93.3952H260.457C262.028 93.3952 263.181 93.6927 263.917 94.2877C264.672 94.8827 265.05 95.795 265.05 96.985C265.05 98.6708 264.195 99.8013 262.485 100.396L265.945 106.128H264.195L261.113 100.833H258.449ZM258.449 99.5435H260.477C261.531 99.5435 262.286 99.3452 262.783 98.9287C263.28 98.5122 263.519 97.8775 263.519 97.0643C263.519 96.2313 263.26 95.6165 262.763 95.2397C262.266 94.8628 261.471 94.6843 260.377 94.6843H258.449V99.5435V99.5435ZM281.792 99.6228C281.792 101.725 281.215 103.332 280.062 104.442C278.929 105.553 277.278 106.108 275.131 106.108H271.592V93.3753H275.509C277.497 93.3753 279.048 93.9307 280.142 95.0215C281.255 96.1322 281.792 97.6593 281.792 99.6228ZM280.221 99.6823C280.221 98.0163 279.804 96.7668 278.969 95.9338C278.133 95.1008 276.901 94.6645 275.25 94.6645H273.083V104.839H274.892C276.662 104.839 277.994 104.403 278.889 103.55C279.784 102.677 280.221 101.388 280.221 99.6823ZM295.452 102.737C295.452 103.867 295.035 104.74 294.219 105.355C293.404 105.989 292.291 106.287 290.899 106.287C289.388 106.287 288.214 106.088 287.399 105.712V104.284C287.916 104.502 288.493 104.68 289.109 104.799C289.726 104.918 290.342 104.998 290.939 104.998C291.933 104.998 292.668 104.819 293.166 104.442C293.663 104.066 293.921 103.55 293.921 102.875C293.921 102.439 293.822 102.082 293.643 101.805C293.464 101.527 293.166 101.249 292.748 101.011C292.33 100.773 291.694 100.496 290.859 100.198C289.666 99.7815 288.811 99.2658 288.314 98.6907C287.817 98.1155 287.558 97.342 287.558 96.4098C287.558 95.4182 287.936 94.6447 288.672 94.0695C289.408 93.4943 290.382 93.1968 291.615 93.1968C292.887 93.1968 294.06 93.4348 295.114 93.891L294.657 95.1802C293.603 94.7438 292.569 94.5257 291.575 94.5257C290.779 94.5257 290.183 94.7042 289.726 95.0215C289.288 95.3587 289.07 95.8347 289.07 96.4297C289.07 96.866 289.149 97.2428 289.308 97.5205C289.467 97.7982 289.746 98.056 290.123 98.294C290.521 98.532 291.098 98.7898 291.913 99.0675C293.245 99.5435 294.18 100.059 294.677 100.595C295.194 101.15 295.452 101.864 295.452 102.737Z" fill="white"/>
</svg>
