<svg width="93" height="93" viewBox="0 0 93 93" fill="none" xmlns="http://www.w3.org/2000/svg">
<path fill-rule="evenodd" clip-rule="evenodd" d="M0 46.5C0 34.1674 4.89909 22.34 13.6195 13.6195C22.34 4.89909 34.1674 0 46.5 0C58.8326 0 70.66 4.89909 79.3805 13.6195C88.1009 22.34 93 34.1674 93 46.5C93 58.8326 88.1009 70.66 79.3805 79.3805C70.66 88.1009 58.8326 93 46.5 93C34.1674 93 22.34 88.1009 13.6195 79.3805C4.89909 70.66 0 58.8326 0 46.5H0ZM43.8464 66.402L70.618 32.9344L65.782 29.0656L42.9536 57.5918L26.784 44.1192L22.816 48.8808L43.8464 66.4082V66.402Z" fill="black"/>
</svg>
