<svg width="2426" height="1531" viewBox="0 0 2426 1531" fill="none" xmlns="http://www.w3.org/2000/svg">
<path fill-rule="evenodd" clip-rule="evenodd" d="M2426.24 173.981C2426.24 57.4344 2365.67 -0.384766 2248.18 -0.384766H177.805C119.078 -0.384766 75.9407 15.2178 47.4851 47.331C15.3719 79.4571 -0.243652 120.753 -0.243652 173.981V1356.02C-0.243652 1409.25 15.3719 1449.62 47.4851 1482.66C80.532 1514.78 122.749 1530.38 177.805 1530.38H2248.18C2365.67 1530.38 2426.24 1471.67 2426.24 1356.03V173.981V173.981ZM2248.18 27.15C2345.45 27.15 2395.03 76.7075 2395.03 173.981V1356.02C2395.03 1454.2 2345.45 1502.84 2248.18 1502.84H177.805C130.997 1502.84 95.2138 1489.08 68.5999 1461.54C41.0651 1434.91 27.3041 1398.21 27.3041 1356.01V173.981C27.3041 76.7075 75.9408 27.15 177.805 27.15H2248.18V27.15Z" fill="#315881"/>
<path fill-rule="evenodd" clip-rule="evenodd" d="M194.316 95.0597C154.862 95.0597 130.077 101.48 116.316 115.254C104.383 130.856 98.8843 156.549 98.8843 194.175V450.211H2327.12V194.175C2327.12 127.186 2294.06 95.0597 2227.99 95.0597H194.316Z" fill="#315881"/>
<path fill-rule="evenodd" clip-rule="evenodd" d="M98.8843 1332.15C98.8843 1400.04 130.997 1434.93 194.316 1434.93H2227.99C2294.06 1434.93 2327.12 1400.05 2327.12 1332.15V1076.11H98.8843V1332.15Z" fill="#DFA43B"/>
<path fill-rule="evenodd" clip-rule="evenodd" d="M836.734 559.429C836.734 571.361 834.892 580.531 830.314 586.964L669.71 866.877L659.606 525.474H402.649L488.911 566.77C513.683 582.373 526.536 602.554 526.536 628.26L550.388 990.778H676.117L977.145 525.474H822.973C832.143 533.736 836.734 546.576 836.734 559.429V559.429ZM1875.61 539.235L1885.69 525.461H1728.76C1734.25 530.96 1736.1 533.723 1736.1 535.552C1734.24 542.88 1730.57 547.484 1728.76 552.983L1500.24 969.624C1494.74 976.965 1489.22 983.398 1482.81 990.752H1612.21L1605.78 976.978C1605.78 965.046 1612.21 943.036 1625.97 911.831L1653.51 860.431H1786.58C1792.1 903.569 1795.77 939.365 1797.6 965.992L1786.58 990.765H1947.18L1923.32 955.889L1875.61 539.235ZM1780.15 795.284H1684.71L1766.38 638.35L1780.15 795.284ZM1383.7 501.61C1334.15 501.61 1291.92 515.384 1254.3 542.906C1212.99 566.77 1192.81 597.054 1192.81 634.693C1192.81 677.83 1207.49 715.455 1236.85 743.898L1325.89 805.375C1358.02 828.331 1373.62 848.512 1373.62 866.877C1373.62 884.309 1365.33 899.911 1349.75 911.843C1334.15 923.776 1316.69 929.275 1294.68 929.275C1262.56 929.275 1207.5 906.344 1131.33 864.128V949.469C1190.98 985.265 1248.81 1003.63 1304.77 1003.63C1358.01 1003.63 1402.98 988.936 1441.54 955.902C1482.84 925.604 1503.02 889.834 1503.02 850.367C1503.02 817.307 1488.32 787.035 1455.29 754.909L1369.92 693.42C1341.5 670.476 1325.89 650.282 1325.89 634.693C1325.89 598.909 1346.99 580.544 1390.13 580.544C1419.49 580.544 1462.63 597.067 1520.44 631.943L1537.89 542.919C1489.23 515.371 1438.76 501.61 1383.7 501.61V501.61ZM1042.3 990.765C1040.46 971.492 1036.79 954.06 1034.95 935.695L1151.51 559.429L1179.05 525.474H1011.1C1012.94 533.736 1014.77 544.747 1016.61 553.009C1016.61 561.271 1016.61 571.374 1014.77 580.544L898.224 953.139L874.359 990.778H1042.3V990.765V990.765Z" fill="#315881"/>
</svg>
